{
    "asset" : {
        "generator" : "Khronos glTF Blender I/O v1.7.33",
        "version" : "2.0"
    },
    "scene" : 0,
    "scenes" : [
        {
            "name" : "Scene",
            "nodes" : [
                1
            ]
        }
    ],
    "nodes" : [
        {
            "mesh" : 0,
            "name" : "Sphere"
        },
        {
            "children" : [
                0
            ],
            "name" : "white_marble_tiles"
        }
    ],
    "materials" : [
        {
            "doubleSided" : true,
            "name" : "white_marble_tiles",
            "pbrMetallicRoughness" : {
                "baseColorTexture" : {
                    "index" : 0
                },
                "metallicFactor" : 0,
                "roughnessFactor" : 0.15000000596046448
            }
        }
    ],
    "meshes" : [
        {
            "name" : "Sphere",
            "primitives" : [
                {
                    "attributes" : {
                        "POSITION" : 0,
                        "NORMAL" : 1,
                        "TEXCOORD_0" : 2
                    },
                    "indices" : 3,
                    "material" : 0
                }
            ]
        }
    ],
    "textures" : [
        {
            "sampler" : 0,
            "source" : 0
        }
    ],
    "images" : [
        {
            "bufferView" : 4,
            "mimeType" : "image/png",
            "name" : "white_marble_tiles_diffuse"
        }
    ],
    "accessors" : [
        {
            "bufferView" : 0,
            "componentType" : 5126,
            "count" : 34039,
            "max" : [
                0.9991960525512695,
                0.9991934895515442,
                0.99919593334198
            ],
            "min" : [
                -0.9991955757141113,
                -0.9991934895515442,
                -0.9991957545280457
            ],
            "type" : "VEC3"
        },
        {
            "bufferView" : 1,
            "componentType" : 5126,
            "count" : 34039,
            "type" : "VEC3"
        },
        {
            "bufferView" : 2,
            "componentType" : 5126,
            "count" : 34039,
            "type" : "VEC2"
        },
        {
            "bufferView" : 3,
            "componentType" : 5123,
            "count" : 190464,
            "type" : "SCALAR"
        }
    ],
    "bufferViews" : [
        {
            "buffer" : 0,
            "byteLength" : 408468,
            "byteOffset" : 0
        },
        {
            "buffer" : 0,
            "byteLength" : 408468,
            "byteOffset" : 408468
        },
        {
            "buffer" : 0,
            "byteLength" : 272312,
            "byteOffset" : 816936
        },
        {
            "buffer" : 0,
            "byteLength" : 380928,
            "byteOffset" : 1089248
        },
        {
            "buffer" : 0,
            "byteLength" : 192081,
            "byteOffset" : 1470176
        }
    ],
    "samplers" : [
        {
            "magFilter" : 9729,
            "minFilter" : 9987
        }
    ],
    "buffers" : [
        {
            "byteLength" : 1662260,
            "uri" : "data:application/octet-stream;base64,"
        }
    ]
}
